<svg xmlns="http://www.w3.org/2000/svg" width="1939.527" height="310.529" viewBox="0 0 1939.527 310.529">
  <path id="Kształt_69" data-name="Kształt 69" d="M1920.527,8422.824s-16.52-4.027-19.153-4.414-1.787-4.028-1.473-5.886.423-3.661-14.733-2.942-25.728,1.857-27.992,2.942.791,7.743-1.473,8.828-23.886.019-25.046,0-3.26-4.027-2.946-7.356-6.944-4.028-8.84-2.942-3.629-26.468-4.42-27.957-4-.717-7.366,0,.055-5.132-1.473-5.886-52.247-.35-54.511,0-3.26-11.753-2.947-17.656.054-7.707-2.947-8.828-2.892-6.972-4.42-13.242c-2.633-27.238-3.629-55.9-1.473-61.8s-1.473-5.886-1.473-5.886l-1.473-8.828s.423,5.535-1.473,7.356-2.155,2.226-1.473,7.357-4.365,57.77-4.42,63.271-1.419,9.949-4.42,11.771-2.892,47.47-2.947,55.913-7.68,15.835-8.84,11.771c3.26-6.639-3.629-4.4-1.473-8.828s-.314-9.546-1.473-8.828-3.629-37.5-2.946-32.371-4.365,30.917-5.893,33.842-1.419,1.489-1.473,5.886-4,3.329-1.473,5.886-2.947,10.3-2.947,10.3a59.35,59.35,0,0,0-7.366,1.472c-4.106,1.085-2.892,3.7-4.42,4.414s-14.31,1.121-17.679,0,.423-4.765-2.947-4.414-15.783-.351-20.626,0-.314-8.442-1.473-10.3-10.627-.717-13.26,0,.669,12.648-7.366,13.243-5.592-2.435-7.366-7.357,2.511-16.045,1.473-17.656-3.382-2.066-8.84-4.414-8.84-16.186-8.84-16.186-3.75,16.694-7.366,17.657-15.168-.228-19.153,0-1.541-4.273-2.947-7.357-8.17-8.687-10.313-8.828-4.487,1.244-4.42-1.472,1.406-5.009-4.42-4.414-10.749-1.33-14.733,0-6.329-10.526-7.366-19.128-1.909-16.412-2.947-10.3-.436,28.833-7.366,29.428-7.065.877-13.26,2.943-16.642-.6-19.153,0-3.382-33.7-2.947-38.256-6.7-10.528-8.84-11.771-4.119-32.6-4.42-35.313-1.172-5.01-2.947-4.414c-1.038,37.012-15.537,38.028-22.1,41.2s-18.852,3.45-20.626,4.414-1.909,50.535-1.473,54.441-14.063,2.347-17.679,2.942-.067,6.394-1.473,8.828-19.957.509-23.572,0-.8-4.642-2.947-4.414-2.646-11.63-4.42-11.771-2.947,11.771-2.947,11.771a16.461,16.461,0,0,1-4.42,1.472c-2.879.595.3,4.187-1.473,5.886s-22.9.876-27.992,0-5.893-10.3-5.893-10.3l-2.947-10.3s-2.277,8.6-4.42,8.828-.8-67.176,0-70.627-5.96-2.434-8.84-1.472-.8-5.009-1.473-7.356-5.224-4.273-10.313-2.943-1.75,1.245-2.42,2.943-10.749-.963-8.84,2.942,1.984,67.457-.527,64.741-6.84-54.441-6.84-54.441-1.331,20.372-3.473,33.843-5.224,24.05-7.366,25.014,2.879,8.6,0,8.828-13.327.141-14.733-2.943,3.248-35.908,0-35.313-8.539-.963-11.786,0-.436,7.13-2.946,7.357-3.75-.963-7.367,0-1.54-2.8-2.946-13.242c-1.406-15.591-.436-28.919,0-48.556s1.774-35.909,0-47.085-.436-32.6-2.947-35.313-5.96-3.17-5.893-5.885-4.119-4.642-5.893-4.415-2.277-30.391-4.42-29.427-1.172,30.3-4.42,30.9-2.646-2.066-5.893,0c-5.458,2.8-1.172,183.7-1.473,188.338s-7.434,2.347-8.84,2.942-1.172-23.77-1.473-25.014,1.774-5.745-1.473-5.886-.436-14.205-1.473-16.185-13.26-1.472-13.26-1.472-.067-7.952-1.473-8.828-71.89-2.8-75.137-1.472.3,32.512-1.473,35.313-37.636,1.244-39.779,2.942-2.947,14.715-2.947,14.715-8.907,2.715-11.786,2.942-.436-6.113-2.946-5.886-24.008-1.331-26.519,0-1.172-15.677-1.473-17.657-3.382.142-2.947-1.471-1.541-6.48-5.893-5.886a4.718,4.718,0,0,0-4.42,4.414s-2.646.876-4.42,0-1.909-14.94-1.473-17.656-10.012-3.17-13.26-1.472-1.541,20.372-1.473,27.956-.067,23.315-2.947,23.543-.8,1.244-1.473,4.414-3.75,1.244-4.42,0-.436-6.113-2.947-7.357-3.382-10.527-4.42-13.242-4.119-12-5.893-10.3-4.487,10.072-4.42,14.714-.436,9.7-4.42,10.3-1.54,6.025-1.473,7.356-17.01.509-20.626,0-1.172,6.395-4.42,7.357-58.63,1.611-61.878,1.471-1.172-10.159-2.946-10.3-15.905-.963-17.679,0-2.277,5.658-2.947,7.356-5.592,3.451-5.893,1.472-1.541-46.944-1.473-52.971-4.119-7.216-8.84-5.885-1.172-3.17-1.473-7.357-1.909-3.905-4.42-4.414-.436-12.734-1.473-14.714-13.327-2.435-16.206-2.942.669,4.187-1.473,5.886-5.592,4.187-5.893,7.356-1.172,31.04,0,39.728.669,32.144-2.947,33.842-.067,3.083-5.893,4.414-12.222-1.331-14.733-1.472-.436-12-2.947-14.713-1.909-7.217-5.893-7.357-4.855.509-5.893-2.942-3.751-3.906-10.313-2.943-3.75,3.819-10.313,4.415-43.529-1.7-47.145-1.472-5.224,1.979-5.893,4.414-.8,5.658-4.42,5.886-2.277,8.6-2.947,13.242-8.17,2.348-14.733,2.942-1.909,4.555-8.84,4.414-10.38-5.745-19.153-2.942-13.7-.228-17.679,0-3.382-.228-2.947-2.943-.067-10.526-4.42-10.3-29.164-.963-33.885,0-.067,9.7-2.947,11.771-17.378-.595-22.1,0-4.855-2.066-5.893-5.886-1.172-.962-4.42-4.414-14.063-85.567-14.733-91.226-2.645-12.366-2.947,5.886-9.275,75.549-10.313,80.926-2.277,3.451-4.42,4.414.669,11.912-4.42,11.771-6.329.876-10.313,1.472-3.382-5.745-7.366-5.886-8.907-.6-11.786,0-3.014,2.348-5.893,4.414-11.485.876-16.206,1.472-5.592-4.642-5.893-10.3,1.017-15.561-2.947-14.713-4.877-4.158-5.893-7.357-10.033-3.055-10.313-7.356,1.753-7.1-14.733-4.414-24.766.991-29.466,0-8.928-1.216-11.786,2.942-13.348.992-16.206,1.472a52.171,52.171,0,0,0-7.366,1.472c-2.858.847-3.771-1.583-7.366-4.415s-22.556,1.36-25.046-1.471-1.562-80.3,0-79.456,6.91-4.525,4.42-7.355-4.876-4.895-2.947-5.886,3.227-3.423,2.947-10.3-.825-8.939-4.42-8.828-3.035-6.732-1.473-10.3-2.947-8.828-2.947-8.828l-1.473-63.271s1.017,59.848-1.473,63.271-3.772,6.509-2.947,10.3-2.3,7.245-4.42,8.828-3.035,13.5,0,17.657-1.562,3.935-1.473,8.828,6.542,3.935,7.366,5.885-1.93,78.608-2.947,80.927-8.56,3.935-13.259,4.415-4.14,7.98-4.42,11.771-.457,6.878-2.947,7.357.648,10.556-1.473,14.713-16.294.625-25.046,0-4.508-3.422-4.42-5.886,2.858-1.214-13.259-1.471-11.875-2.687-14.733-5.886-7.086.992-8.84-2.942-8.191-3.055-14.733-2.943-5.245,12.028-8.84,4.415,3.963-14.826-2.947-17.657-48.338.992-50.092,2.943-1.562,30.052-2.947,36.784-5.981,4.67-13.259,2.943-14.085-2.319-22.1,4.414-31.4,3.566-35.359,2.942-.457-10.044-2.947-11.771-21.819-1.95-29.466,0-3.035,17.545-8.84,22.071-17.679,2.943-17.679,2.943V8490H1931Z" transform="translate(7.527 -8180.47)" fill="#128f5e" stroke="#128f5e" stroke-linecap="round" stroke-linejoin="round" stroke-width="2"/>
</svg>
