<svg xmlns="http://www.w3.org/2000/svg" width="80.997" height="12.001" viewBox="0 0 80.997 12.001">
  <path id="logo_kresky" data-name="logo kresky" d="M1881.511,9260v-4.5h2.359v4.5Zm-18.831,0v-3.751h2.361V9260Zm-26.76,0v-2.25h11.02V9260ZM1809,9260v-3.751h2.359V9260Zm62.15,0-5.519-5.259v.009l-.788-.748.788-.751v.01l5.519-5.259h3.34l-6.3,6,6.3,6Zm-21.852,0v-2.249h7.086a1.5,1.5,0,1,0,0-3h-3.149s-3.937,0-3.937-3.374,3.937-3.374,3.937-3.374h7.086v2.249h-7.086s-1.573,0-1.573,1.125,1.573,1.125,1.573,1.125h3.149s3.937,0,3.937,3.751-3.937,3.748-3.937,3.748Zm-19.084,0-5.51-5.25h-2.171V9252.5h7.086s1.573,0,1.573-1.125-1.573-1.125-1.573-1.125h-7.086V9248h7.086s3.937,0,3.937,3.374-3.937,3.374-3.937,3.374h-1.576l5.512,5.25Zm-12.594,0-5.522-5.259v.009l-.786-.748.786-.751v.01l5.522-5.259h3.339l-6.3,6,6.3,6Zm18.3-5.247v-2.25h11.02v2.25Zm47.341-3.514,3.4-3.237H1890l-5.068,4.829Zm-7.874-3.237h3.34l3.4,3.237-1.671,1.592Zm-12.707,3.75V9248h2.361v3.75Zm-53.679,0V9248h2.359v3.75Zm26.918-1.5V9248h11.02v2.249Z" transform="translate(-1809.001 -9248)" fill="#fff"/>
</svg>
