<svg xmlns="http://www.w3.org/2000/svg" width="253.144" height="57.872" viewBox="0 0 253.144 57.872">
  <g id="PODPIS_m_nowaczyk_handwrite_WHITE" data-name="PODPIS m nowaczyk handwrite WHITE" transform="translate(-833.029 -512.637)">
    <path id="Kształt_6" data-name="Kształt 6" d="M849.915,542s-3.364,4.991,1.99,5,10.893-10.509,0-11-22.595,7.49-15.915,15,20.674,3.157,34.814-12,18.187-27.676,11.936-25-4.856,33.657-6.963,38,12.254-27.049,20.888-33-.843-12.049-6.963,16c-3.965,18.549-1.174,21.451,3.979,16s8.441-1.882,6.963,0-3.661.951-1.989-1a5.853,5.853,0,0,1,3.979-2" fill="none" stroke="#fff" stroke-linecap="round" stroke-linejoin="round" stroke-width="2"/>
    <path id="Kształt_7" data-name="Kształt 7" d="M922.526,545s-1.48,1.9.995,3,10.125-10.271-1.989-11-17.726,13.563-10.941,18,19.225.729,32.423-18,12.47-23.1,9.907-23-1.64,4.4-.9,16,7.654,20.9-.648,24c-3.268,1.222,15.1-36.1,28.846-39s5.649,9.562-3.979,6" fill="none" stroke="#fff" stroke-linecap="round" stroke-linejoin="round" stroke-width="2"/>
    <path id="Kształt_9" data-name="Kształt 9" d="M1062.775,521c-2.231,2.7-2.984,3-2.984,3s-6.081,2.3-7.957-1c-4.529-7.464,8.839-9.537,14.92-6s14.31,8.3,16.909,6,1.876-7.37-5.968-5c-11.326,3.37-18.9,27-18.9,27s-7.573,24.463-11.936,19a3.13,3.13,0,0,1-.44-.717c-2.147-5.024,16.341-7.713,11.381,1.717-5.192,9.87-21.167.8-25.861-2s-11.552-2.7-9.947,3,13.812,2.464,18.9-6,13.149-23.37,13.925-22-3.594,11.964-8.952,12-1.937-6.37-.995-9-1.274-3.37-3.979,2-7.573,8.464-9.947,6-8.734.8-5.968,1,9.171-10.7,11.936-12,1.612,3.932-2.984,1c-4.96-3.164-8.734,2.464-10.941,6s-10.542,9.464-8.952,0c1.745-10.383,11.528-5.361,4.974-7-4.651-1.163-7.237,12.433-12.931,12-1.573-.119,2.538-5.781-.979-7.4-2.794-1.283-.478-5.622.979-5.6,2.931.036-.113,14.3-6.963,13s1.99-12,1.99-12,.218.464-4.973,2-3.76-4.536-2.984-2-5.252,12.464-7.957,12-.776-14.536.995-13-8.07,14.3-8.952,13,2.984-13,2.984-13-1.339,2.271-6.963,5-5.815-2.4-2.984-3-.841,11.1-5.968,11-2-7.9,2.984-12c-4.3,2.063-6.963,0-6.963,0" fill="none" stroke="#fff" stroke-linecap="round" stroke-linejoin="round" stroke-width="2"/>
    <path id="Kształt_17" data-name="Kształt 17" d="M1058.671,545.01c2.148-2.939,4.775-5.247,8.083-6.011,6.021-1.37-.716,3.87-3.979,4s2.434-.8.995,5,3.76,2.87,6.963-1" fill="none" stroke="#fff" stroke-linecap="round" stroke-linejoin="round" stroke-width="2"/>
  </g>
</svg>
