<svg xmlns="http://www.w3.org/2000/svg" width="254.489" height="57.872" viewBox="0 0 254.489 57.872">
  <g id="PODPIS_m_nowaczyk_handwrite_BLUE_2" data-name="PODPIS m nowaczyk handwrite BLUE 2" transform="translate(-740.029 -1681.637)">
    <path id="Kształt_6" data-name="Kształt 6" d="M757,1711s-3.382,4.991,2,5,10.951-10.509,0-11-22.716,7.491-16,15,20.784,3.158,35-12,18.285-27.676,12-25-4.882,33.657-7,38,12.319-27.049,21-33-.847-12.049-7,16c-3.986,18.549-1.181,21.451,4,16s8.486-1.882,7,0-3.68.951-2-1a5.9,5.9,0,0,1,4-2" fill="none" stroke="#603" stroke-linecap="round" stroke-linejoin="round" stroke-width="2"/>
    <path id="Kształt_7" data-name="Kształt 7" d="M830,1714s-1.488,1.9,1,3,10.179-10.271-2-11-17.821,13.563-11,18,19.328.729,32.6-18,12.537-23.1,9.96-23-1.649,4.4-.905,16,7.695,20.9-.651,24c-3.285,1.222,15.179-36.1,29-39s5.679,9.562-4,6" fill="none" stroke="#603" stroke-linecap="round" stroke-linejoin="round" stroke-width="2"/>
    <path id="Kształt_9" data-name="Kształt 9" d="M971,1690c-2.243,2.7-3,3-3,3s-6.114,2.3-8-1c-4.553-7.464,8.886-9.537,15-6s14.386,8.3,17,6,1.886-7.37-6-5c-11.386,3.37-19,27-19,27s-7.614,24.463-12,19a3.126,3.126,0,0,1-.442-.717c-2.159-5.024,16.429-7.713,11.442,1.717-5.22,9.87-21.28.8-26-2s-11.614-2.7-10,3,13.886,2.463,19-6,13.22-23.37,14-22-3.614,11.964-9,12-1.947-6.37-1-9-1.28-3.369-4,2-7.614,8.463-10,6-8.78.8-6,1,9.22-10.7,12-12,1.62,3.932-3,1c-4.986-3.164-8.78,2.463-11,6s-10.6,9.464-9,0c1.754-10.384,11.589-5.361,5-7-4.676-1.163-7.276,12.433-13,12-1.582-.12,2.552-5.782-.985-7.4-2.809-1.282-.48-5.621.985-5.6,2.947.037-.114,14.3-7,13s2-12,2-12,.22.464-5,2-3.78-4.537-3-2-5.28,12.464-8,12-.78-14.537,1-13-8.114,14.3-9,13,3-13,3-13-1.346,2.271-7,5-5.846-2.4-3-3-.846,11.1-6,11-2.013-7.9,3-12c-4.321,2.063-7,0-7,0" fill="none" stroke="#603" stroke-linecap="round" stroke-linejoin="round" stroke-width="2"/>
    <path id="Kształt_17" data-name="Kształt 17" d="M966.874,1714.01c2.16-2.939,4.8-5.247,8.126-6.01,6.053-1.37-.72,3.87-4,4s2.447-.8,1,5,3.78,2.87,7-1" fill="none" stroke="#603" stroke-linecap="round" stroke-linejoin="round" stroke-width="2"/>
  </g>
</svg>
