<svg xmlns="http://www.w3.org/2000/svg" width="198" height="165.001" viewBox="0 0 198 165.001">
  <g id="Kształt_67" data-name="Kształt 67" transform="translate(-861 -3183.999)" fill="none">
    <path d="M864,3349a3,3,0,0,1-3-3v-47a3,3,0,0,1,3-3h91.4l78.6-112-55.017,112H1056a3,3,0,0,1,3,3v47a3,3,0,0,1-3,3Z" stroke="none"/>
    <path d="M 1055.999755859375 3348 C 1057.102905273438 3348 1058.000366210938 3347.10302734375 1058.000366210938 3346.000244140625 L 1058.000366210938 3298.99951171875 C 1058.000366210938 3297.89697265625 1057.102905273438 3297 1055.999755859375 3297 L 977.3773193359375 3297 L 1027.435913085938 3195.093994140625 L 955.9232788085938 3297 L 864 3297 C 862.8973388671875 3297 862.0003051757812 3297.89697265625 862.0003051757812 3298.99951171875 L 862.0003051757812 3346.000244140625 C 862.0003051757812 3347.10302734375 862.8973388671875 3348 864 3348 L 1055.999755859375 3348 M 1055.999755859375 3349 L 864 3349 C 862.3431396484375 3349 861.0003051757812 3347.6572265625 861.0003051757812 3346.000244140625 L 861.0003051757812 3298.99951171875 C 861.0003051757812 3297.343505859375 862.3431396484375 3296 864 3296 L 955.4033813476562 3296 L 1034.000122070312 3183.999267578125 L 978.982666015625 3296 L 1055.999755859375 3296 C 1057.656616210938 3296 1059.000366210938 3297.343505859375 1059.000366210938 3298.99951171875 L 1059.000366210938 3346.000244140625 C 1059.000366210938 3347.6572265625 1057.656616210938 3349 1055.999755859375 3349 Z" stroke="none" fill="#fff"/>
  </g>
</svg>
