<svg xmlns="http://www.w3.org/2000/svg" width="43.01" height="39.647" viewBox="0 0 43.01 39.647">
  <path id="ICO_hearth_" data-name="ICO hearth " d="M507.192,2274.928a.989.989,0,0,1-.373.073h-.02a.987.987,0,0,1-.367-.071v.893s-18.125-11-18.125-22.623c0-8.171,3.928-11.024,7.971-11.024,7.972,0,10.154,5.847,10.154,5.847v1.048a.987.987,0,0,1,.367-.07h.02a.989.989,0,0,1,.373.072v-1.05s2.182-5.847,10.154-5.847c4.044,0,7.971,2.853,7.971,11.024,0,11.048-18.125,22.623-18.125,22.623Z" transform="translate(-485.308 -2239.176)" fill="none" stroke="#603" stroke-linecap="round" stroke-linejoin="round" stroke-width="6"/>
</svg>
