<svg xmlns="http://www.w3.org/2000/svg" width="16.017" height="21.001" viewBox="0 0 16.017 21.001">
  <path id="ICO_PHONE_" data-name="ICO PHONE " d="M1731.67,1000.738c-.484-.091-4.261-.97-8.273-6.862-3.849-5.653-3.742-9.792-3.677-10.594a3.564,3.564,0,0,1,.664-2.161l1.4-.922a1.021,1.021,0,0,1,1.4.274l2.25,4.494a.983.983,0,0,1-.278,1.378l-1.362,1.26a9.957,9.957,0,0,0,5.6,7.607l1.384-.616a1.021,1.021,0,0,1,1.4.274l3.37,3.758a.983.983,0,0,1-.278,1.378l-1.4.921a1.14,1.14,0,0,1-.575.108A5.288,5.288,0,0,1,1731.67,1000.738Z" transform="translate(-1719.702 -980.033)" fill="#101010"/>
</svg>
