<svg xmlns="http://www.w3.org/2000/svg" width="64.22" height="63.531" viewBox="0 0 64.22 63.531">
  <g id="ico_bike_trip" data-name="ico bike trip" transform="translate(-1220.894 -2243.5)">
    <ellipse id="Elipsa_575" data-name="Elipsa 575" cx="9.62" cy="9.63" rx="9.62" ry="9.63" transform="translate(1222.88 2279.87)" fill="none" stroke="#101010" stroke-linecap="round" stroke-linejoin="round" stroke-width="3"/>
    <circle id="Elipsa_575_kopia" data-name="Elipsa 575 kopia" cx="9.63" cy="9.63" r="9.63" transform="translate(1263.87 2279.87)" fill="none" stroke="#101010" stroke-linecap="round" stroke-linejoin="round" stroke-width="3"/>
    <line id="Kształt_579" data-name="Kształt 579" y1="12" x2="11" transform="translate(1255.5 2274.5)" fill="none" stroke="#101010" stroke-linecap="round" stroke-linejoin="round" stroke-width="3"/>
    <path id="Kształt_578" data-name="Kształt 578" d="M1269,2273.5h-27l-9,16h15.906m.714-2.634c-2.953-5.638-9.62-19.366-9.62-19.366h-3" fill="none" stroke="#101010" stroke-linecap="round" stroke-linejoin="round" stroke-width="3"/>
    <line id="Kształt_578_kopia" data-name="Kształt 578 kopia" x1="1" transform="translate(1272 2273.5)" fill="none" stroke="#101010" stroke-linecap="round" stroke-linejoin="round" stroke-width="3"/>
    <circle id="Elipsa_580" data-name="Elipsa 580" cx="3.59" cy="3.59" r="3.59" transform="translate(1249.91 2285.91)" fill="none" stroke="#101010" stroke-linecap="round" stroke-linejoin="round" stroke-width="3"/>
    <line id="Kształt_581" data-name="Kształt 581" x1="4" transform="translate(1241.5 2267.5)" fill="none" stroke="#101010" stroke-linecap="round" stroke-linejoin="round" stroke-width="3"/>
    <path id="Kształt_577" data-name="Kształt 577" d="M1273.5,2289.5l-5-25h-6" fill="none" stroke="#101010" stroke-linecap="round" stroke-linejoin="round" stroke-width="3"/>
    <line id="Kształt_582" data-name="Kształt 582" x2="2" y2="2" transform="translate(1260.5 2262.5)" fill="none" stroke="#101010" stroke-linecap="round" stroke-linejoin="round" stroke-width="3"/>
    <path id="Kształt_712" data-name="Kształt 712" d="M1223,2263l14-11,10,7,17-14,19,16" fill="none" stroke="#101010" stroke-linecap="round" stroke-linejoin="round" stroke-width="3"/>
    <line id="Kształt_585" data-name="Kształt 585" x2="61" transform="translate(1222.47 2305.53)" fill="none" stroke="#101010" stroke-linecap="round" stroke-linejoin="round" stroke-width="3"/>
  </g>
</svg>
