<svg xmlns="http://www.w3.org/2000/svg" width="12.012" height="16.001" viewBox="0 0 12.012 16.001">
  <path id="ICO_PHONE_kopia" data-name="ICO PHONE  kopia" d="M1755.681,27.807c-.371-.071-3.2-.746-6.2-5.227-2.882-4.3-2.806-7.449-2.758-8.068a2.747,2.747,0,0,1,.5-1.651l1.049-.7a.759.759,0,0,1,1.051.208l1.688,3.424a.757.757,0,0,1-.208,1.05l-1.022.96a7.586,7.586,0,0,0,4.2,5.8l1.037-.468a.758.758,0,0,1,1.051.208l2.527,2.863a.758.758,0,0,1-.208,1.05l-1.049.7a.845.845,0,0,1-.431.082A3.918,3.918,0,0,1,1755.681,27.807Z" transform="translate(-1746.706 -12.032)" fill="#fff"/>
</svg>
