<svg xmlns="http://www.w3.org/2000/svg" width="64.243" height="64.101" viewBox="0 0 64.243 64.101">
  <g id="ICO_culture_nature" data-name="ICO culture nature" transform="translate(-739.879 -2553.899)">
    <rect id="Prostokąt_3_kopia_2" data-name="Prostokąt 3 kopia 2" width="64" height="64" transform="translate(740 2554)" fill="#fff"/>
    <path id="Kształt_43" data-name="Kształt 43" d="M742,2604l10-10,11,11,24-24,15,15" fill="none" stroke="#101010" stroke-linecap="round" stroke-linejoin="round" stroke-width="3"/>
    <path id="Kształt_44" data-name="Kształt 44" d="M799.4,2585.4v-17l-7-7h-22l-6-6-6,6h-8v14l-6,6V2592" fill="none" stroke="#101010" stroke-linecap="round" stroke-linejoin="round" stroke-width="3"/>
    <path id="Kształt_44_kopia_4" data-name="Kształt 44 kopia 4" d="M802.4,2616.4h-61" fill="none" stroke="#101010" stroke-linecap="round" stroke-linejoin="round" stroke-width="3"/>
    <path id="Kształt_44_kopia_5" data-name="Kształt 44 kopia 5" d="M787.4,2615.4h0V2604" fill="none" stroke="#101010" stroke-linecap="round" stroke-linejoin="round" stroke-width="3"/>
    <ellipse id="Elipsa_9" data-name="Elipsa 9" cx="5.69" cy="7.59" rx="5.69" ry="7.59" transform="translate(781.68 2595.41)" fill="none" stroke="#101010" stroke-linecap="round" stroke-linejoin="round" stroke-width="3"/>
    <path id="Kształt_44_kopia_2" data-name="Kształt 44 kopia 2" d="M750.4,2587.4h0v-12" fill="none" stroke="#101010" stroke-linecap="round" stroke-linejoin="round" stroke-width="3"/>
    <path id="Kształt_44_kopia_3" data-name="Kształt 44 kopia 3" d="M778.4,2582.4l-5-5-5,5h0v16" fill="none" stroke="#101010" stroke-linecap="round" stroke-linejoin="round" stroke-width="3"/>
    <path id="Kształt_44_kopia" data-name="Kształt 44 kopia" d="M755.4,2568.4h32l4.6-4.6" fill="none" stroke="#101010" stroke-linecap="round" stroke-linejoin="round" stroke-width="3"/>
  </g>
</svg>
