<svg xmlns="http://www.w3.org/2000/svg" width="64" height="64" viewBox="0 0 64 64">
  <g id="ICO_help" data-name="ICO help" transform="translate(-1220 -2243)">
    <rect id="Prostokąt_3_kopia_4" data-name="Prostokąt 3 kopia 4" width="64" height="64" transform="translate(1220 2243)" fill="#fff"/>
    <g id="zoom_kopia" data-name="zoom kopia">
      <circle id="Elipsa_12" data-name="Elipsa 12" cx="13" cy="13" r="13" transform="translate(1240.53 2263.84)" fill="none" stroke="#101010" stroke-linecap="round" stroke-linejoin="round" stroke-width="3"/>
      <path id="Prostokąt_zaokrąglony_4" data-name="Prostokąt zaokrąglony 4" d="M1243.859,2285.619c1.172,1.171,1.879,2.364.707,3.535l-15.142,15.142a3,3,0,0,1-4.243-4.242l15.142-15.143C1241.5,2283.74,1242.688,2284.448,1243.859,2285.619Z" fill="none" stroke="#101010" stroke-linecap="round" stroke-linejoin="round" stroke-width="3"/>
      <line id="Kształt_59" data-name="Kształt 59" x2="2.83" y2="2.83" transform="translate(1237.02 2290.39)" fill="none" stroke="#101010" stroke-linecap="round" stroke-linejoin="round" stroke-width="3"/>
    </g>
    <g id="map">
      <line id="Prostokąt_4_kopia" data-name="Prostokąt 4 kopia" x2="36" transform="translate(1234.5 2251.5)" fill="none" stroke="#101010" stroke-linecap="round" stroke-linejoin="round" stroke-width="3"/>
      <line id="Prostokąt_4_kopia_2" data-name="Prostokąt 4 kopia 2" x2="30" transform="translate(1245.5 2296.5)" fill="none" stroke="#101010" stroke-linecap="round" stroke-linejoin="round" stroke-width="3"/>
      <line id="Prostokąt_4_kopia_3" data-name="Prostokąt 4 kopia 3" x2="5" transform="translate(1238.5 2256.5)" fill="none" stroke="#101010" stroke-linecap="round" stroke-linejoin="round" stroke-width="3"/>
      <line id="Prostokąt_4_kopia_4" data-name="Prostokąt 4 kopia 4" x2="17" transform="translate(1249.5 2256.5)" fill="none" stroke="#101010" stroke-linecap="round" stroke-linejoin="round" stroke-width="3"/>
      <path id="Elipsa_14" data-name="Elipsa 14" d="M1246.1,2276.45a7.45,7.45,0,0,1,7.45-7.45" fill="none" stroke="#101010" stroke-linecap="round" stroke-linejoin="round" stroke-width="3"/>
      <path id="Elipsa_14_kopia_4" data-name="Elipsa 14 kopia 4" d="M1228.571,2295.938a5.939,5.939,0,0,1-5.939-5.939" fill="none" stroke="#101010" stroke-linecap="round" stroke-linejoin="round" stroke-width="3"/>
      <path id="Elipsa_14_kopia_5" data-name="Elipsa 14 kopia 5" d="M1276.429,2295.938a5.939,5.939,0,0,0,5.939-5.939" fill="none" stroke="#101010" stroke-linecap="round" stroke-linejoin="round" stroke-width="3"/>
      <path id="Elipsa_14_kopia" data-name="Elipsa 14 kopia" d="M1232.5,2263.865h0v16.27a9.038,9.038,0,0,0-1.5-.135c-4.8,0-7.714,3.763-7.975,8.5h-.525v-34l.5-.457c0-.014,0-.029,0-.043,0-4.971,3.029-9,8-9a8.071,8.071,0,0,1,.864.078l.636-.578v.635h0Z" fill="none" stroke="#101010" stroke-linecap="round" stroke-linejoin="round" stroke-width="3"/>
      <path id="Elipsa_14_kopia_2" data-name="Elipsa 14 kopia 2" d="M1282.5,2288.5h-.525A8.992,8.992,0,0,0,1273,2280c-.512,0-.011.053-.5.135v-16.27h0v-18.73h0v-.635l.636.578c.287-.031-.431-.078-.136-.078a9,9,0,0,1,9,9c0,.014,0,.029,0,.043l.5.457Z" fill="none" stroke="#101010" stroke-linecap="round" stroke-linejoin="round" stroke-width="3"/>
    </g>
  </g>
</svg>
