<svg xmlns="http://www.w3.org/2000/svg" width="64.69" height="64.412" viewBox="0 0 64.69 64.412">
  <g id="ICO_head" data-name="ICO head" transform="translate(-1219.31 -2138.588)">
    <rect id="Prostokąt_3_kopia_3" data-name="Prostokąt 3 kopia 3" width="64" height="64" transform="translate(1220 2139)" fill="#fff"/>
    <path id="Elipsa_11" data-name="Elipsa 11" d="M1231.089,2163.92c0-13.162,10.433-23.832,23.3-23.832" fill="none" stroke="#101010" stroke-linecap="round" stroke-linejoin="round" stroke-width="3"/>
    <line id="Kształt_47_kopia_2" data-name="Kształt 47 kopia 2" x1="44" transform="translate(1230.13 2197.53)" fill="none" stroke="#101010" stroke-linecap="round" stroke-linejoin="round" stroke-width="3"/>
    <line id="Kształt_47_kopia_4" data-name="Kształt 47 kopia 4" x1="9" transform="translate(1272.13 2168.53)" fill="none" stroke="#101010" stroke-linecap="round" stroke-linejoin="round" stroke-width="3"/>
    <line id="Kształt_47_kopia_5" data-name="Kształt 47 kopia 5" x1="16" transform="translate(1254.13 2140.53)" fill="none" stroke="#101010" stroke-linecap="round" stroke-linejoin="round" stroke-width="3"/>
    <path id="Elipsa_12_kopia" data-name="Elipsa 12 kopia" d="M1248.112,2143.469a20,20,0,0,1-16.988,22.607" fill="none" stroke="#101010" stroke-linecap="round" stroke-linejoin="round" stroke-width="3"/>
    <path id="Elipsa_12_kopia_2" data-name="Elipsa 12 kopia 2" d="M1256.033,2141.256a13.868,13.868,0,0,1-11.054,16.2" fill="none" stroke="#101010" stroke-linecap="round" stroke-linejoin="round" stroke-width="3"/>
    <path id="Elipsa_11_kopia_7" data-name="Elipsa 11 kopia 7" d="M1254.94,2188.737a7.928,7.928,0,0,1-7.928-7.928" fill="none" stroke="#101010" stroke-linecap="round" stroke-linejoin="round" stroke-width="3"/>
    <path id="Elipsa_11_kopia_8" data-name="Elipsa 11 kopia 8" d="M1232.687,2176.479a5.292,5.292,0,0,1,0-10.584" fill="none" stroke="#101010" stroke-linecap="round" stroke-linejoin="round" stroke-width="3"/>
    <circle id="Elipsa_11_kopia_6" data-name="Elipsa 11 kopia 6" cx="3.8" cy="3.8" r="3.8" transform="translate(1274.81 2193.31)" fill="none" stroke="#101010" stroke-linecap="round" stroke-linejoin="round" stroke-width="3"/>
    <path id="Elipsa_11_kopia_10" data-name="Elipsa 11 kopia 10" d="M1260.339,2152.462a3.789,3.789,0,0,1,4.738-2.5" fill="none" stroke="#101010" stroke-linecap="round" stroke-linejoin="round" stroke-width="3"/>
    <circle id="Elipsa_11_kopia_9" data-name="Elipsa 11 kopia 9" cx="3.8" cy="3.8" r="3.8" transform="translate(1220.81 2193.31)" fill="none" stroke="#101010" stroke-linecap="round" stroke-linejoin="round" stroke-width="3"/>
    <line id="Kształt_56" data-name="Kształt 56" y2="14.45" transform="translate(1232.5 2176.9)" fill="none" stroke="#101010" stroke-linecap="round" stroke-linejoin="round" stroke-width="3"/>
    <line id="Kształt_56_kopia" data-name="Kształt 56 kopia" y2="7.45" transform="translate(1262.5 2189.9)" fill="none" stroke="#101010" stroke-linecap="round" stroke-linejoin="round" stroke-width="3"/>
    <line id="Kształt_56_kopia_2" data-name="Kształt 56 kopia 2" y2="0.45" transform="translate(1234.5 2170.9)" fill="none" stroke="#101010" stroke-linecap="round" stroke-linejoin="round" stroke-width="3"/>
    <ellipse id="Elipsa_8_kopia" data-name="Elipsa 8 kopia" cx="1.61" cy="1.62" rx="1.61" ry="1.62" transform="translate(1263.09 2157.13)" fill="none" stroke="#101010" stroke-linecap="round" stroke-linejoin="round" stroke-width="3"/>
    <path id="Kształt_58" data-name="Kształt 58" d="M1255.8,2188.4h15l3-8" fill="none" stroke="#101010" stroke-linecap="round" stroke-linejoin="round" stroke-width="3"/>
    <path id="Kształt_57" data-name="Kształt 57" d="M1274,2169l2,8s-8.309,4.283-13-1" fill="none" stroke="#101010" stroke-linecap="round" stroke-linejoin="round" stroke-width="3"/>
    <line id="Kształt_53" data-name="Kształt 53" x2="10" y2="26" transform="translate(1271 2141)" fill="none" stroke="#101010" stroke-linecap="round" stroke-linejoin="round" stroke-width="3"/>
  </g>
</svg>
