<svg xmlns="http://www.w3.org/2000/svg" width="64" height="64" viewBox="0 0 64 64">
  <g id="ICO_sugestion" data-name="ICO sugestion" transform="translate(-1220 -2363)">
    <rect id="Prostokąt_3_kopia_5" data-name="Prostokąt 3 kopia 5" width="64" height="64" transform="translate(1220 2363)" fill="#fff"/>
    <g id="ico_talk" data-name="ico talk">
      <path id="Kształt_60" data-name="Kształt 60" d="M1273.469,2374.5h3.031a6,6,0,0,1,6,6v28a6,6,0,0,1-6,6h-32L1233,2425v-10.5h-5.5a6,6,0,0,1-6-6v-28a6,6,0,0,1,6-6h9.5" fill="none" stroke="#101010" stroke-linecap="round" stroke-linejoin="round" stroke-width="3"/>
      <path id="Kształt_60_kopia" data-name="Kształt 60 kopia" d="M1228.5,2384.5h9.5" fill="none" stroke="#101010" stroke-linecap="round" stroke-linejoin="round" stroke-width="3"/>
      <path id="Kształt_60_kopia_2" data-name="Kształt 60 kopia 2" d="M1228.5,2393.5h.5" fill="none" stroke="#101010" stroke-linecap="round" stroke-linejoin="round" stroke-width="3"/>
      <path id="Kształt_60_kopia_4" data-name="Kształt 60 kopia 4" d="M1235.5,2393.5h5.5" fill="none" stroke="#101010" stroke-linecap="round" stroke-linejoin="round" stroke-width="3"/>
      <path id="Kształt_60_kopia_3" data-name="Kształt 60 kopia 3" d="M1228.5,2402.5h6.5" fill="none" stroke="#101010" stroke-linecap="round" stroke-linejoin="round" stroke-width="3"/>
      <path id="Kształt_60_kopia_6" data-name="Kształt 60 kopia 6" d="M1241.5,2402.5h.5" fill="none" stroke="#101010" stroke-linecap="round" stroke-linejoin="round" stroke-width="3"/>
      <path id="Kształt_60_kopia_5" data-name="Kształt 60 kopia 5" d="M1275.5,2384.5H1273" fill="none" stroke="#101010" stroke-linecap="round" stroke-linejoin="round" stroke-width="3"/>
      <path id="Kształt_60_kopia_5-2" data-name="Kształt 60 kopia 5" d="M1275.5,2393.5H1270" fill="none" stroke="#101010" stroke-linecap="round" stroke-linejoin="round" stroke-width="3"/>
      <path id="Kształt_60_kopia_5-3" data-name="Kształt 60 kopia 5" d="M1275.5,2402.5H1269" fill="none" stroke="#101010" stroke-linecap="round" stroke-linejoin="round" stroke-width="3"/>
    </g>
    <g id="ico_idea" data-name="ico idea">
      <path id="Kształt_45_kopia" data-name="Kształt 45 kopia" d="M1261.827,2401.463s-.438-11.187,2.507-16.3c5.052-8.767,2.916-20.527-8.776-20.527" fill="none" stroke="#101010" stroke-linecap="round" stroke-linejoin="round" stroke-width="3"/>
      <path id="Kształt_45_kopia_2" data-name="Kształt 45 kopia 2" d="M1248.321,2401.463s.438-11.187-2.507-16.3c-5.052-8.767-2.916-20.527,8.776-20.527" fill="none" stroke="#101010" stroke-linecap="round" stroke-linejoin="round" stroke-width="3"/>
      <line id="Kształt_46_kopia_2" data-name="Kształt 46 kopia 2" x2="12" transform="translate(1248.8 2403.4)" fill="none" stroke="#101010" stroke-linecap="round" stroke-linejoin="round" stroke-width="3"/>
      <line id="Kształt_46_kopia_3" data-name="Kształt 46 kopia 3" x2="12" transform="translate(1248.8 2395.4)" fill="none" stroke="#101010" stroke-linecap="round" stroke-linejoin="round" stroke-width="3"/>
      <path id="Kształt_61" data-name="Kształt 61" d="M1251,2378l3,3,6-6" fill="none" stroke="#101010" stroke-linecap="round" stroke-linejoin="round" stroke-width="3"/>
      <path id="Elipsa_10" data-name="Elipsa 10" d="M1257.439,2404.344a2.507,2.507,0,1,1-5.015,0" fill="none" stroke="#101010" stroke-linecap="round" stroke-linejoin="round" stroke-width="3"/>
    </g>
  </g>
</svg>
