<svg xmlns="http://www.w3.org/2000/svg" width="64.1" height="64.119" viewBox="0 0 64.1 64.119">
  <g id="ICO_history" data-name="ICO history" transform="translate(-739.9 -2242.881)">
    <rect id="Prostokąt_3" data-name="Prostokąt 3" width="64" height="64" transform="translate(740 2243)" fill="#fff"/>
    <g id="build">
      <path id="Kształt_36_kopia" data-name="Kształt 36 kopia" d="M801.4,2305.4h-7v-12h-22v6h-14v-11h-17v17h6" fill="none" stroke="#101010" stroke-linecap="round" stroke-linejoin="round" stroke-width="3"/>
      <path id="Kształt_33" data-name="Kształt 33" d="M777.6,2287.6v-9l-6-5" fill="none" stroke="#101010" stroke-linecap="round" stroke-linejoin="round" stroke-width="3"/>
      <path id="Kształt_32_kopia" data-name="Kształt 32 kopia" d="M753.4,2279v-10h6l5-7v-4l-3-4,10-9" fill="none" stroke="#101010" stroke-linecap="round" stroke-linejoin="round" stroke-width="3"/>
      <line id="Kształt_38" data-name="Kształt 38" y1="5.74" transform="translate(771.7 2255.83)" fill="none" stroke="#101010" stroke-linecap="round" stroke-linejoin="round" stroke-width="3"/>
      <path id="Kształt_32_kopia_2" data-name="Kształt 32 kopia 2" d="M789.6,2291v-22h-6l-5-7v-4l3-4-10-9" fill="none" stroke="#101010" stroke-linecap="round" stroke-linejoin="round" stroke-width="3"/>
      <path id="Kształt_37" data-name="Kształt 37" d="M802.5,2305.5v-25h-12" fill="none" stroke="#101010" stroke-linecap="round" stroke-linejoin="round" stroke-width="3"/>
      <path id="Kształt_37_kopia" data-name="Kształt 37 kopia" d="M741.5,2287.5v-8h12" fill="none" stroke="#101010" stroke-linecap="round" stroke-linejoin="round" stroke-width="3"/>
      <line id="Kształt_37_kopia_2" data-name="Kształt 37 kopia 2" x2="46" transform="translate(747.5 2305.5)" fill="none" stroke="#101010" stroke-linecap="round" stroke-linejoin="round" stroke-width="3"/>
      <path id="Kształt_33_kopia" data-name="Kształt 33 kopia" d="M765.4,2293.6v-15l6-5" fill="none" stroke="#101010" stroke-linecap="round" stroke-linejoin="round" stroke-width="3"/>
    </g>
  </g>
</svg>
