<svg xmlns="http://www.w3.org/2000/svg" width="64.142" height="62.487" viewBox="0 0 64.142 62.487">
  <g id="ICO_topic_trip" data-name="ICO topic trip" transform="translate(-739.929 -2451.013)">
    <g id="book">
      <path id="Kształt_21" data-name="Kształt 21" d="M771.492,2507.621s.429-6.029-5.081-6.261-12.491,6.261-24.387,6.261" fill="none" stroke="#101010" stroke-linecap="round" stroke-linejoin="round" stroke-width="3"/>
      <line id="Kształt_23" data-name="Kształt 23" x2="29.47" transform="translate(742.02 2512)" fill="none" stroke="#101010" stroke-linecap="round" stroke-linejoin="round" stroke-width="3"/>
      <path id="Kształt_34" data-name="Kształt 34" d="M742.024,2507l5.081-7a18.654,18.654,0,0,0,9.145-2c4.525-2.368,11.9-8.3,15.242-2" fill="none" stroke="#101010" stroke-linecap="round" stroke-linejoin="round" stroke-width="3"/>
      <path id="Kształt_34_kopia" data-name="Kształt 34 kopia" d="M801.976,2507l-5.081-7a18.654,18.654,0,0,1-9.145-2c-4.525-2.368-11.9-8.3-15.242-2" fill="none" stroke="#101010" stroke-linecap="round" stroke-linejoin="round" stroke-width="3"/>
      <line id="Kształt_42" data-name="Kształt 42" y2="10" transform="translate(772.4 2496.8)" fill="none" stroke="#101010" stroke-linecap="round" stroke-linejoin="round" stroke-width="3"/>
      <path id="Kształt_21_kopia" data-name="Kształt 21 kopia" d="M772.508,2507.621s-.429-6.029,5.081-6.261,12.491,6.261,24.387,6.261" fill="none" stroke="#101010" stroke-linecap="round" stroke-linejoin="round" stroke-width="3"/>
      <line id="Kształt_23_kopia" data-name="Kształt 23 kopia" x1="29.47" transform="translate(772.51 2512)" fill="none" stroke="#101010" stroke-linecap="round" stroke-linejoin="round" stroke-width="3"/>
      <line id="Kształt_23_kopia_2" data-name="Kształt 23 kopia 2" x1="39.47" transform="translate(752.51 2507)" fill="none" stroke="#101010" stroke-linecap="round" stroke-linejoin="round" stroke-width="3"/>
    </g>
    <g id="blink_star" data-name="blink star">
      <path id="Kształt_41" data-name="Kształt 41" d="M772,2453l5,11,10,1-8,6,3,12-10-7" fill="none" stroke="#101010" stroke-linecap="round" stroke-linejoin="round" stroke-width="3"/>
      <path id="Kształt_41_kopia" data-name="Kształt 41 kopia" d="M772,2453l-5,11-10,1,8,6-3,12,10-7" fill="none" stroke="#101010" stroke-linecap="round" stroke-linejoin="round" stroke-width="3"/>
      <line id="Kształt_39" data-name="Kształt 39" x1="4" y1="2" transform="translate(747 2491)" fill="none" stroke="#101010" stroke-linecap="round" stroke-linejoin="round" stroke-width="3"/>
      <line id="Kształt_40" data-name="Kształt 40" x1="4" y1="7" transform="translate(753 2483)" fill="none" stroke="#101010" stroke-linecap="round" stroke-linejoin="round" stroke-width="3"/>
      <line id="Kształt_39_kopia" data-name="Kształt 39 kopia" y1="2" x2="4" transform="translate(793 2491)" fill="none" stroke="#101010" stroke-linecap="round" stroke-linejoin="round" stroke-width="3"/>
      <line id="Kształt_40_kopia" data-name="Kształt 40 kopia" y1="7" x2="4" transform="translate(787 2483)" fill="none" stroke="#101010" stroke-linecap="round" stroke-linejoin="round" stroke-width="3"/>
    </g>
  </g>
</svg>
