<svg xmlns="http://www.w3.org/2000/svg" width="16.973" height="23.978" viewBox="0 0 16.973 23.978">
  <path id="ICO_PHONE_kopia" data-name="ICO PHONE  kopia" d="M341.4,72.662c-.552-.114-4.532-1.146-8.757-7.831-4.078-6.451-3.965-11.176-3.9-12.094a4.278,4.278,0,0,1,.7-2.469l1.483-1.052a1.035,1.035,0,0,1,1.485.312l2.384,5.131a1.176,1.176,0,0,1-.294,1.573l-1.444,1.439a11.413,11.413,0,0,0,5.933,8.685l1.466-.7a1.033,1.033,0,0,1,1.485.311l3.57,4.289a1.177,1.177,0,0,1-.293,1.574l-1.483,1.05a1.136,1.136,0,0,1-.611.123A5.245,5.245,0,0,1,341.4,72.662Z" transform="translate(-328.722 -49.025)" fill="#fff"/>
</svg>
